<svg xmlns="http://www.w3.org/2000/svg" version="1.1" xmlns:xlink="http://www.w3.org/1999/xlink" viewBox="0 0 200 200"><rect width="200" height="200" fill="url('#gradient')"></rect><defs><linearGradient id="gradient" gradientTransform="rotate(80 0.5 0.5)"><stop offset="0%" stop-color="#ffffff"></stop><stop offset="100%" stop-color="#ffffff"></stop></linearGradient></defs><g><g fill="#ff0000" transform="matrix(5.0540170002741975,0,0,5.0540170002741975,4.578325049760153,135.93343641321923)" stroke="#0e5278" stroke-width="0.2"><path d="M10.03-8.30L10.03-5.66L4.50-5.66L4.50 0L1.07 0L1.07-14.22L10.59-14.22L10.59-11.57L4.50-11.57L4.50-8.30L10.03-8.30ZM23.37-14.22L23.37-11.57L19.10-11.57L19.10 0L15.67 0L15.67-11.57L11.48-11.57L11.48-14.22L23.37-14.22ZM36.69-14.22L36.69 0L33.28 0L28.24-8.85L28.24 0L24.81 0L24.81-14.22L28.24-14.22L33.27-5.37L33.27-14.22L36.69-14.22Z"></path></g></g></svg>